<svg version="1.1" id="Layer_1" xmlns="http://www.w3.org/2000/svg" xmlns:xlink="http://www.w3.org/1999/xlink" x="0px" y="0px"
	 width="100%" viewBox="0 0 512 512" enable-background="new 0 0 512 512" xml:space="preserve">
<path fill="#FFFFFF" opacity="1.000000" stroke="none" 
	d="
M1.000000,455.000000 
	C1.000000,303.712280 1.000000,152.424576 1.000000,1.068436 
	C171.569550,1.068436 342.139160,1.068436 513.000000,1.068436 
	C513.000000,152.023956 513.000000,303.048096 512.636292,454.438782 
	C509.992249,453.870209 507.718018,452.139465 505.430634,452.121948 
	C480.105896,451.928070 454.779144,452.000000 429.452911,452.000000 
	C428.162048,452.000000 426.871185,452.000000 425.580322,452.000000 
	C434.218597,448.513702 442.899963,445.812469 451.538788,442.981476 
	C461.627991,439.675201 467.358124,429.044434 464.388336,418.874756 
	C460.885406,406.879395 457.208618,394.933716 453.504028,382.998535 
	C445.236694,356.363617 436.920563,329.743774 428.595734,303.126740 
	C420.080658,275.901489 411.504150,248.695404 403.006195,221.464813 
	C396.559479,200.807236 390.237274,180.110794 383.782074,159.455902 
	C373.552368,126.723625 363.276703,94.005676 352.977783,61.295116 
	C350.297211,52.781269 339.306610,44.128281 328.227753,47.835140 
	C312.271942,53.173752 296.032104,57.661526 279.926422,62.554996 
	C272.776733,64.727333 265.658630,67.003731 258.506165,69.239151 
	C257.919647,66.848236 257.323761,64.999153 257.025482,63.103233 
	C255.702621,54.694595 247.949203,48.005363 239.371185,48.002716 
	C214.544815,47.995049 189.716339,47.839664 164.894287,48.166847 
	C161.015579,48.217972 157.164490,51.465477 153.303574,51.459091 
	C149.391190,51.452618 145.496445,48.220779 141.569855,48.167126 
	C117.247902,47.834797 92.919136,47.999516 68.592636,48.000210 
	C56.962952,48.000538 49.000149,56.042763 49.000130,67.787704 
	C48.999924,193.918945 49.000000,320.050171 49.000000,446.181427 
	C49.000000,448.095490 49.000000,450.009521 49.000000,452.000000 
	C35.469601,452.000000 22.642101,452.123596 9.819856,451.918671 
	C6.330390,451.862946 3.438830,452.528229 1.000000,455.000000 
z"/>
<path fill="#000000" opacity="1.000000" stroke="none" 
	d="
M1.000000,455.444153 
	C3.438830,452.528229 6.330390,451.862946 9.819856,451.918671 
	C22.642101,452.123596 35.469601,452.000000 49.000000,452.000000 
	C49.000000,450.009521 49.000000,448.095490 49.000000,446.181427 
	C49.000000,320.050171 48.999924,193.918945 49.000130,67.787704 
	C49.000149,56.042763 56.962952,48.000538 68.592636,48.000210 
	C92.919136,47.999516 117.247902,47.834797 141.569855,48.167126 
	C145.496445,48.220779 149.391190,51.452618 153.303574,51.459091 
	C157.164490,51.465477 161.015579,48.217972 164.894287,48.166847 
	C189.716339,47.839664 214.544815,47.995049 239.371185,48.002716 
	C247.949203,48.005363 255.702621,54.694595 257.025482,63.103233 
	C257.323761,64.999153 257.919647,66.848236 258.506165,69.239151 
	C265.658630,67.003731 272.776733,64.727333 279.926422,62.554996 
	C296.032104,57.661526 312.271942,53.173752 328.227753,47.835140 
	C339.306610,44.128281 350.297211,52.781269 352.977783,61.295116 
	C363.276703,94.005676 373.552368,126.723625 383.782074,159.455902 
	C390.237274,180.110794 396.559479,200.807236 403.006195,221.464813 
	C411.504150,248.695404 420.080658,275.901489 428.595734,303.126740 
	C436.920563,329.743774 445.236694,356.363617 453.504028,382.998535 
	C457.208618,394.933716 460.885406,406.879395 464.388336,418.874756 
	C467.358124,429.044434 461.627991,439.675201 451.538788,442.981476 
	C442.899963,445.812469 434.218597,448.513702 425.580322,452.000000 
	C426.871185,452.000000 428.162048,452.000000 429.452911,452.000000 
	C454.779144,452.000000 480.105896,451.928070 505.430634,452.121948 
	C507.718018,452.139465 509.992249,453.870209 512.636292,454.902649 
	C513.000000,457.370575 513.000000,459.741119 512.636963,462.664673 
	C510.580170,466.627411 507.596039,467.035370 504.179871,467.034546 
	C339.473724,466.995026 174.767609,466.986969 10.061514,467.079407 
	C6.172581,467.081573 3.346710,465.859680 1.000000,463.000000 
	C1.000000,460.629425 1.000000,458.258881 1.000000,455.444153 
M322.002228,285.418671 
	C325.483185,296.596222 328.953430,307.777069 332.447174,318.950623 
	C340.961426,346.180817 349.494446,373.405121 358.004211,400.636719 
	C362.689575,415.629974 367.263641,430.658691 372.075165,445.611176 
	C373.093414,448.775574 375.318115,450.274292 379.118164,449.075500 
	C400.669922,442.276611 422.282898,435.671967 443.866425,428.973480 
	C449.132568,427.339142 450.184479,425.285522 448.542603,420.014130 
	C442.204285,399.664337 435.848053,379.320160 429.499939,358.973419 
	C421.192291,332.345856 412.914764,305.708832 404.571320,279.092499 
	C395.749573,250.950378 386.856110,222.830765 378.013428,194.695206 
	C374.419861,183.261200 370.877686,171.811066 367.200287,160.009247 
	C362.737183,161.424347 358.690277,162.719360 354.636047,163.990921 
	C334.448395,170.322464 314.281189,176.721130 294.043701,182.889236 
	C291.293274,183.727539 290.690552,184.387512 291.595886,187.257217 
	C301.821777,219.671341 311.888397,252.135696 322.002228,285.418671 
M64.000015,448.348175 
	C63.338810,451.624390 64.968056,452.077209 67.860352,452.063232 
	C91.192429,451.950348 114.525291,452.000000 137.857910,452.000000 
	C140.474594,452.000000 143.091263,452.000000 145.759674,452.000000 
	C145.759674,367.785858 145.759674,284.049194 145.759674,200.243851 
	C118.447372,200.243851 91.376068,200.243851 64.000000,200.243851 
	C64.000000,282.783966 64.000000,365.080627 64.000015,448.348175 
M161.000000,353.500000 
	C161.000000,386.260498 161.000000,419.021027 161.000000,451.712280 
	C188.309937,451.712280 215.047180,451.712280 241.714172,451.712280 
	C241.714172,385.356415 241.714172,319.288605 241.714172,253.287689 
	C214.690109,253.287689 187.952850,253.287689 161.000000,253.287689 
	C161.000000,286.549957 161.000000,319.524963 161.000000,353.500000 
M258.000000,202.500000 
	C258.000000,285.574036 258.000000,368.648071 258.000000,451.783752 
	C291.523926,451.783752 324.532867,451.783752 357.623566,451.783752 
	C324.611237,346.156006 291.667816,240.748734 258.724396,135.341461 
	C258.482941,135.404877 258.241455,135.468292 258.000000,135.531708 
	C258.000000,157.521133 258.000000,179.510574 258.000000,202.500000 
M161.000000,170.500000 
	C161.000000,181.263504 161.000000,192.027008 161.000000,202.713226 
	C188.310928,202.713226 215.046738,202.713226 241.712952,202.713226 
	C241.712952,179.022415 241.712952,155.619476 241.712952,132.286743 
	C214.689148,132.286743 187.953339,132.286743 161.000000,132.286743 
	C161.000000,144.881622 161.000000,157.190811 161.000000,170.500000 
M141.750793,63.227631 
	C118.778214,63.151752 95.805664,63.067760 72.833046,63.004822 
	C65.706223,62.985294 64.026833,64.701462 64.007492,72.062035 
	C63.978615,83.053001 64.000000,94.044090 64.000000,105.035133 
	C64.000000,108.965431 64.000000,112.895721 64.000000,116.721130 
	C91.653397,116.721130 118.710052,116.721130 145.999573,116.721130 
	C145.999573,101.146797 146.148010,85.847160 145.837082,70.556870 
	C145.791245,68.303169 143.568832,66.093719 141.750793,63.227631 
M242.000000,75.557053 
	C241.999832,73.224777 241.975510,70.892204 242.005066,68.560303 
	C242.050446,64.979897 240.171295,63.045349 236.731598,63.035492 
	C213.575485,62.969101 190.418396,62.911049 167.263443,63.086514 
	C163.269958,63.116779 160.754044,65.289879 160.926910,70.010597 
	C161.201065,77.497200 161.000000,85.001205 161.000000,92.497849 
	C161.000000,100.594620 161.000000,108.691391 161.000000,116.723999 
	C188.299973,116.723999 215.030365,116.723999 242.000000,116.723999 
	C242.000000,103.146805 242.000000,89.844452 242.000000,75.557053 
M292.589630,120.002213 
	C311.400543,114.190811 330.211426,108.379410 349.272491,102.490730 
	C346.132568,92.641220 342.929169,83.067406 340.040436,73.399559 
	C337.061920,63.431313 338.170776,60.765804 325.449921,64.932564 
	C305.350677,71.516129 285.131470,77.739288 264.897095,83.898415 
	C261.602905,84.901138 260.267181,86.841827 261.094879,89.648270 
	C264.697845,101.864632 268.605682,113.991081 272.532227,126.564835 
	C279.322906,124.257797 285.540192,122.145561 292.589630,120.002213 
M296.965118,165.548645 
	C302.167023,163.958466 307.377533,162.395782 312.569244,160.773010 
	C328.301483,155.855621 344.043915,150.968445 359.709198,145.845749 
	C360.614349,145.549774 361.581024,143.095337 361.303589,141.936462 
	C360.112488,136.961716 358.520782,132.078674 356.974762,127.193977 
	C353.868317,117.379189 353.841034,117.386993 343.977448,120.497772 
	C321.697235,127.524483 299.417267,134.552017 277.117615,141.585403 
	C279.968536,150.587524 282.849640,159.684967 285.688904,168.650223 
	C289.555023,167.667435 292.901520,166.816727 296.965118,165.548645 
M238.348267,218.000000 
	C212.601379,218.000000 186.854477,218.000000 161.343628,218.000000 
	C161.343628,225.093155 161.343628,231.503479 161.343628,237.654877 
	C188.426025,237.654877 215.164032,237.654877 241.999771,237.654877 
	C241.999771,231.816772 242.130173,226.317505 241.879089,220.835693 
	C241.834106,219.853531 240.212753,218.943558 238.348267,218.000000 
M144.290314,132.003922 
	C117.548454,132.003922 90.806587,132.003922 64.364944,132.003922 
	C64.364944,138.803513 64.364944,144.882736 64.364944,150.632324 
	C91.801811,150.632324 118.873207,150.632324 146.374176,150.632324 
	C145.985733,144.181274 145.620697,138.118805 144.290314,132.003922 
M126.499580,185.000000 
	C132.930862,185.000000 139.362152,185.000000 145.710144,185.000000 
	C145.710144,178.349670 145.710144,172.278610 145.710144,166.287048 
	C118.351746,166.287048 91.284149,166.287048 64.289848,166.287048 
	C64.289848,172.649628 64.289848,178.721695 64.289848,185.000000 
	C84.885918,185.000000 105.192863,185.000000 126.499580,185.000000 
z"/>
<path fill="#FFFFFF" opacity="1.000000" stroke="none" 
	d="
M1.000000,463.468658 
	C3.346710,465.859680 6.172581,467.081573 10.061514,467.079407 
	C174.767609,466.986969 339.473724,466.995026 504.179871,467.034546 
	C507.596039,467.035370 510.580170,466.627411 512.636963,463.108826 
	C513.000000,479.654755 513.000000,496.309479 513.000000,512.957703 
	C342.333313,512.951172 171.666656,512.951172 1.000000,512.951172 
	C1.000000,496.580719 1.000000,480.259003 1.000000,463.468658 
z"/>
<path fill="#FFFFFF" opacity="1.000000" stroke="none" 
	d="
M322.000000,285.002625 
	C311.888397,252.135696 301.821777,219.671341 291.595886,187.257217 
	C290.690552,184.387512 291.293274,183.727539 294.043701,182.889236 
	C314.281189,176.721130 334.448395,170.322464 354.636047,163.990921 
	C358.690277,162.719360 362.737183,161.424347 367.200287,160.009247 
	C370.877686,171.811066 374.419861,183.261200 378.013428,194.695206 
	C386.856110,222.830765 395.749573,250.950378 404.571320,279.092499 
	C412.914764,305.708832 421.192291,332.345856 429.499939,358.973419 
	C435.848053,379.320160 442.204285,399.664337 448.542603,420.014130 
	C450.184479,425.285522 449.132568,427.339142 443.866425,428.973480 
	C422.282898,435.671967 400.669922,442.276611 379.118164,449.075500 
	C375.318115,450.274292 373.093414,448.775574 372.075165,445.611176 
	C367.263641,430.658691 362.689575,415.629974 358.004211,400.636719 
	C349.494446,373.405121 340.961426,346.180817 332.447174,318.950623 
	C328.953430,307.777069 325.483185,296.596222 322.000000,285.002625 
z"/>
<path fill="#FFFFFF" opacity="1.000000" stroke="none" 
	d="
M64.000008,447.862732 
	C64.000000,365.080627 64.000000,282.783966 64.000000,200.243851 
	C91.376068,200.243851 118.447372,200.243851 145.759674,200.243851 
	C145.759674,284.049194 145.759674,367.785858 145.759674,452.000000 
	C143.091263,452.000000 140.474594,452.000000 137.857910,452.000000 
	C114.525291,452.000000 91.192429,451.950348 67.860352,452.063232 
	C64.968056,452.077209 63.338810,451.624390 64.000008,447.862732 
z"/>
<path fill="#FFFFFF" opacity="1.000000" stroke="none" 
	d="
M161.000000,353.000000 
	C161.000000,319.524963 161.000000,286.549957 161.000000,253.287689 
	C187.952850,253.287689 214.690109,253.287689 241.714172,253.287689 
	C241.714172,319.288605 241.714172,385.356415 241.714172,451.712280 
	C215.047180,451.712280 188.309937,451.712280 161.000000,451.712280 
	C161.000000,419.021027 161.000000,386.260498 161.000000,353.000000 
z"/>
<path fill="#FFFFFF" opacity="1.000000" stroke="none" 
	d="
M258.000000,202.000000 
	C258.000000,179.510574 258.000000,157.521133 258.000000,135.531708 
	C258.241455,135.468292 258.482941,135.404877 258.724396,135.341461 
	C291.667816,240.748734 324.611237,346.156006 357.623566,451.783752 
	C324.532867,451.783752 291.523926,451.783752 258.000000,451.783752 
	C258.000000,368.648071 258.000000,285.574036 258.000000,202.000000 
z"/>
<path fill="#FFFFFF" opacity="1.000000" stroke="none" 
	d="
M161.000000,170.000000 
	C161.000000,157.190811 161.000000,144.881622 161.000000,132.286743 
	C187.953339,132.286743 214.689148,132.286743 241.712952,132.286743 
	C241.712952,155.619476 241.712952,179.022415 241.712952,202.713226 
	C215.046738,202.713226 188.310928,202.713226 161.000000,202.713226 
	C161.000000,192.027008 161.000000,181.263504 161.000000,170.000000 
z"/>
<path fill="#FFFFFF" opacity="1.000000" stroke="none" 
	d="
M142.052124,63.545715 
	C143.568832,66.093719 145.791245,68.303169 145.837082,70.556870 
	C146.148010,85.847160 145.999573,101.146797 145.999573,116.721130 
	C118.710052,116.721130 91.653397,116.721130 64.000000,116.721130 
	C64.000000,112.895721 64.000000,108.965431 64.000000,105.035133 
	C64.000000,94.044090 63.978615,83.053001 64.007492,72.062035 
	C64.026833,64.701462 65.706223,62.985294 72.833046,63.004822 
	C95.805664,63.067760 118.778214,63.151752 142.052124,63.545715 
z"/>
<path fill="#FFFFFF" opacity="1.000000" stroke="none" 
	d="
M242.000000,76.049576 
	C242.000000,89.844452 242.000000,103.146805 242.000000,116.723999 
	C215.030365,116.723999 188.299973,116.723999 161.000000,116.723999 
	C161.000000,108.691391 161.000000,100.594620 161.000000,92.497849 
	C161.000000,85.001205 161.201065,77.497200 160.926910,70.010597 
	C160.754044,65.289879 163.269958,63.116779 167.263443,63.086514 
	C190.418396,62.911049 213.575485,62.969101 236.731598,63.035492 
	C240.171295,63.045349 242.050446,64.979897 242.005066,68.560303 
	C241.975510,70.892204 241.999832,73.224777 242.000000,76.049576 
z"/>
<path fill="#FFFFFF" opacity="1.000000" stroke="none" 
	d="
M292.173553,120.017776 
	C285.540192,122.145561 279.322906,124.257797 272.532227,126.564835 
	C268.605682,113.991081 264.697845,101.864632 261.094879,89.648270 
	C260.267181,86.841827 261.602905,84.901138 264.897095,83.898415 
	C285.131470,77.739288 305.350677,71.516129 325.449921,64.932564 
	C338.170776,60.765804 337.061920,63.431313 340.040436,73.399559 
	C342.929169,83.067406 346.132568,92.641220 349.272491,102.490730 
	C330.211426,108.379410 311.400543,114.190811 292.173553,120.017776 
z"/>
<path fill="#FFFFFF" opacity="1.000000" stroke="none" 
	d="
M296.606567,165.757324 
	C292.901520,166.816727 289.555023,167.667435 285.688904,168.650223 
	C282.849640,159.684967 279.968536,150.587524 277.117615,141.585403 
	C299.417267,134.552017 321.697235,127.524483 343.977448,120.497772 
	C353.841034,117.386993 353.868317,117.379189 356.974762,127.193977 
	C358.520782,132.078674 360.112488,136.961716 361.303589,141.936462 
	C361.581024,143.095337 360.614349,145.549774 359.709198,145.845749 
	C344.043915,150.968445 328.301483,155.855621 312.569244,160.773010 
	C307.377533,162.395782 302.167023,163.958466 296.606567,165.757324 
z"/>
<path fill="#FFFFFF" opacity="1.000000" stroke="none" 
	d="
M238.833755,218.000122 
	C240.212753,218.943558 241.834106,219.853531 241.879089,220.835693 
	C242.130173,226.317505 241.999771,231.816772 241.999771,237.654877 
	C215.164032,237.654877 188.426025,237.654877 161.343628,237.654877 
	C161.343628,231.503479 161.343628,225.093155 161.343628,218.000000 
	C186.854477,218.000000 212.601379,218.000000 238.833755,218.000122 
z"/>
<path fill="#FFFFFF" opacity="1.000000" stroke="none" 
	d="
M144.772980,132.030121 
	C145.620697,138.118805 145.985733,144.181274 146.374176,150.632324 
	C118.873207,150.632324 91.801811,150.632324 64.364944,150.632324 
	C64.364944,144.882736 64.364944,138.803513 64.364944,132.003922 
	C90.806587,132.003922 117.548454,132.003922 144.772980,132.030121 
z"/>
<path fill="#FFFFFF" opacity="1.000000" stroke="none" 
	d="
M125.999695,185.000000 
	C105.192863,185.000000 84.885918,185.000000 64.289848,185.000000 
	C64.289848,178.721695 64.289848,172.649628 64.289848,166.287048 
	C91.284149,166.287048 118.351746,166.287048 145.710144,166.287048 
	C145.710144,172.278610 145.710144,178.349670 145.710144,185.000000 
	C139.362152,185.000000 132.930862,185.000000 125.999695,185.000000 
z"/>
</svg>